<svg xmlns="http://www.w3.org/2000/svg" xmlns:xlink="http://www.w3.org/1999/xlink" xmlns:lucid="lucid" width="1289.4" height="192"><g transform="translate(-24 -460)" lucid:page-tab-id="0_0"><path d="M0 0h1360v1760H0z" fill="#fff"/><path d="M206.38 486h83.25v34.5h-83.25z" stroke="#000" stroke-opacity="0" stroke-width="2" fill="#fff" fill-opacity="0"/><use xlink:href="#a" transform="matrix(1,0,0,1,211.375,491) translate(8.166666666666664 16.5)"/><path d="M44 492c0-6.63 5.37-12 12-12h110.4c6.63 0 12 5.37 12 12v52.8c0 6.63-5.37 12-12 12H56c-6.63 0-12-5.37-12-12z" stroke="#000" stroke-width="2" fill="#b2d6ef"/><use xlink:href="#b" transform="matrix(1,0,0,1,49,485) translate(32.31481481481482 37.94444444444444)"/><path d="M327 492c0-6.63 5.37-12 12-12h110.4c6.63 0 12 5.37 12 12v52.8c0 6.63-5.37 12-12 12H339c-6.63 0-12-5.37-12-12z" stroke="#000" stroke-width="2" fill="#f9d2de"/><use xlink:href="#c" transform="matrix(1,0,0,1,332,485) translate(38.70370370370371 37.94444444444444)"/><path d="M606 492c0-6.63 5.37-12 12-12h110.4c6.63 0 12 5.37 12 12v52.8c0 6.63-5.37 12-12 12H618c-6.63 0-12-5.37-12-12z" stroke="#000" stroke-width="2" fill="#c7e8ac"/><use xlink:href="#d" transform="matrix(1,0,0,1,611,485) translate(26.728395061728392 37.94444444444444)"/><path d="M179.9 518.4h129.72" fill="none"/><path d="M179.9 518.4h4.8m4.8 0h9.62m4.8 0h9.6m4.8 0h9.62m4.8 0h9.62m4.8 0h9.6m4.8 0h9.62m4.8 0h9.6m4.82 0h9.6m4.8 0h4.82" stroke="#000" fill="none"/><path d="M179.9 518.9h-.5v-1h.5z"/><path d="M324.38 518.4l-14.26 4.64v-9.28z" stroke="#000"/><path d="M462.9 518.4h125.72" fill="none"/><path d="M462.9 518.4h5.24m5.24 0h10.47m5.24 0h10.47m5.24 0h10.48m5.24 0H531m5.23 0h10.48m5.25 0h10.48m5.23 0h10.48m5.24 0h5.24" stroke="#000" fill="none"/><path d="M462.9 518.9h-.5v-1h.5z"/><path d="M603.38 518.4l-14.26 4.64v-9.28z" stroke="#000"/><path d="M486 486.5h86.63V521H486z" stroke="#000" stroke-opacity="0" stroke-width="2" fill="#fff" fill-opacity="0"/><use xlink:href="#e" transform="matrix(1,0,0,1,491,491.5) translate(-2.0277777777777786 16.5)"/><path d="M886 492c0-6.63 5.37-12 12-12h110.4c6.63 0 12 5.37 12 12v52.8c0 6.63-5.37 12-12 12H898c-6.63 0-12-5.37-12-12z" stroke="#000" stroke-width="2" fill="#ffdba9"/><use xlink:href="#f" transform="matrix(1,0,0,1,891,485) translate(11.358024691358018 37.94444444444444)"/><path d="M1159 492c0-6.63 5.37-12 12-12h110.4c6.63 0 12 5.37 12 12v52.8c0 6.63-5.37 12-12 12H1171c-6.63 0-12-5.37-12-12z" stroke="#000" stroke-width="2" fill="#d1bcd2"/><use xlink:href="#g" transform="matrix(1,0,0,1,1164,485) translate(43.42592592592593 24.611111111111114)"/><use xlink:href="#h" transform="matrix(1,0,0,1,1164,485) translate(21.234567901234563 51.27777777777778)"/><path d="M741.9 518.4h126.72" fill="none"/><path d="M741.9 518.4h5.28m5.28 0h10.56m5.28 0h10.56m5.28 0h10.56m5.28 0h10.56m5.28 0h10.56m5.28 0h10.56m5.28 0h10.56m5.28 0h5.28" stroke="#000" fill="none"/><path d="M741.9 518.9h-.5v-1h.5z"/><path d="M883.38 518.4l-14.26 4.64v-9.28z" stroke="#000"/><path d="M1021.9 518.4h119.72" fill="none"/><path d="M1021.9 518.4h5m4.98 0h9.97m5 0h9.97m5 0h9.96m5 0h9.97m4.98 0h9.98m5 0h9.98m4.98 0h9.98m5 0h4.98" stroke="#000" fill="none"/><path d="M1021.9 518.9h-.5v-1h.5z"/><path d="M1156.38 518.4l-14.26 4.64v-9.28z" stroke="#000"/><path d="M1226.2 558.3V600H702.9v-25.82" fill="none"/><path d="M1226.2 558.3v5.05m0 5.05v10.1m0 5.05v10.1m0 5.05v1.3h-8.8m-5.05 0h-10.1m-5.04 0h-10.1m-5.04 0h-10.1m-5.05 0h-10.1m-5.04 0h-10.1m-5.05 0h-10.1m-5.04 0h-10.1m-5.05 0h-10.1m-5.04 0h-10.1m-5.05 0h-10.08m-5.05 0h-10.1m-5.05 0h-10.1m-5.05 0h-10.1m-5.05 0h-10.1m-5.05 0h-10.1m-5.05 0h-10.1m-5.05 0h-10.1m-5.05 0h-10.1m-5.05 0h-10.1m-5.04 0h-10.1m-5.05 0h-10.1m-5.05 0h-10.1m-5.05 0h-10.1m-5.05 0h-10.1m-5.05 0h-10.1m-5.05 0h-10.1m-5.05 0h-10.1m-5.05 0h-10.1m-5.04 0h-10.1m-5.06 0h-10.1m-5.05 0h-10.1m-5.06 0h-10.1m-5.05 0h-10.1m-5.06 0h-9.53v-.57m0-5.05v-10.1m0-5.05v-5.05" stroke="#000" fill="none"/><path d="M1226.7 558.3h-1v-.5h1z"/><path d="M702.9 559.42l4.65 14.26h-9.28z" stroke="#000"/><path d="M635.64 558.3V600H111.2v-25.82" fill="none"/><path d="M635.64 558.3v5.06m0 5.06v10.12m0 5.06v10.12m0 5.06V600h-8.9m-5.05 0h-10.13m-5.06 0h-10.1m-5.07 0H581.2m-5.05 0h-10.12m-5.06 0h-10.1m-5.07 0h-10.12m-5.06 0H520.5m-5.06 0h-10.12m-5.06 0h-10.12m-5.06 0h-10.12m-5.06 0h-10.12m-5.05 0H444.6m-5.05 0h-10.12m-5.06 0h-10.12m-5.06 0h-10.13m-5.06 0h-10.1m-5.07 0H368.7m-5.05 0h-10.1m-5.07 0h-10.12m-5.06 0h-10.12m-5.06 0H308m-5.06 0h-10.12m-5.06 0h-10.12m-5.06 0h-10.1m-5.07 0h-10.1m-5.07 0H232.1m-5.05 0h-10.12m-5.06 0h-10.12m-5.06 0h-10.13m-5.06 0h-10.1m-5.06 0h-10.12m-5.06 0h-10.12m-5.06 0h-10.12m-5.06 0h-9.6v-.52m0-5.06V584.3m0-5.06v-5.06" stroke="#000" fill="none"/><path d="M636.14 558.3h-1v-.5h1z"/><path d="M111.2 559.42l4.64 14.26h-9.28z" stroke="#000"/><path d="M919.38 603h83.25v27h-83.25z" stroke="#000" stroke-opacity="0" stroke-width="2" fill="#fff" fill-opacity="0"/><use xlink:href="#e" transform="matrix(1,0,0,1,924.375,608) translate(-3.5277777777777786 16)"/><defs><path d="M66-151c12-25 30-51 66-40l-6 26C45-176 58-65 38 0H6l36-190h30" id="i"/><path d="M111-194c62-3 86 47 72 106H45c-7 38 6 69 45 68 27-1 43-14 53-32l24 11C152-15 129 4 87 4 38 3 12-23 12-71c0-70 32-119 99-123zm44 81c14-66-71-72-95-28-4 8-8 17-11 28h106" id="j"/><path d="M67-158c22-48 132-52 116 29L158 0h-32l25-140c3-38-53-32-70-12C52-117 51-52 38 0H6l36-190h30" id="k"/><path d="M133-28C103 26-5 8 13-77c13-62 24-115 90-117 29-1 46 15 56 35l19-102h32L160 0h-30zM45-64c-2 27 10 43 35 43 54-1 69-50 69-103 0-29-15-46-42-46-53-1-58 58-62 106" id="l"/><g id="a"><use transform="matrix(0.05555555555555555,0,0,0.05555555555555555,0,0)" xlink:href="#i"/><use transform="matrix(0.05555555555555555,0,0,0.05555555555555555,6.611111111111111,0)" xlink:href="#j"/><use transform="matrix(0.05555555555555555,0,0,0.05555555555555555,17.72222222222222,0)" xlink:href="#k"/><use transform="matrix(0.05555555555555555,0,0,0.05555555555555555,28.833333333333332,0)" xlink:href="#l"/><use transform="matrix(0.05555555555555555,0,0,0.05555555555555555,39.94444444444444,0)" xlink:href="#j"/><use transform="matrix(0.05555555555555555,0,0,0.05555555555555555,51.05555555555556,0)" xlink:href="#i"/></g><path d="M240 0l2-218c-23 76-54 145-80 218h-23L58-218 59 0H30v-248h44l77 211c21-75 51-140 76-211h43V0h-30" id="m"/><path d="M100-194c62-1 85 37 85 99 1 63-27 99-86 99S16-35 15-95c0-66 28-99 85-99zM99-20c44 1 53-31 53-75 0-43-8-75-51-75s-53 32-53 75 10 74 51 75" id="n"/><path d="M85-194c31 0 48 13 60 33l-1-100h32l1 261h-30c-2-10 0-23-3-31C134-8 116 4 85 4 32 4 16-35 15-94c0-66 23-100 70-100zm9 24c-40 0-46 34-46 75 0 40 6 74 45 74 42 0 51-32 51-76 0-42-9-74-50-73" id="o"/><path d="M100-194c63 0 86 42 84 106H49c0 40 14 67 53 68 26 1 43-12 49-29l28 8c-11 28-37 45-77 45C44 4 14-33 15-96c1-61 26-98 85-98zm52 81c6-60-76-77-97-28-3 7-6 17-6 28h103" id="p"/><path d="M24 0v-261h32V0H24" id="q"/><g id="b"><use transform="matrix(0.06172839506172839,0,0,0.06172839506172839,0,0)" xlink:href="#m"/><use transform="matrix(0.06172839506172839,0,0,0.06172839506172839,18.456790123456788,0)" xlink:href="#n"/><use transform="matrix(0.06172839506172839,0,0,0.06172839506172839,30.80246913580247,0)" xlink:href="#o"/><use transform="matrix(0.06172839506172839,0,0,0.06172839506172839,43.148148148148145,0)" xlink:href="#p"/><use transform="matrix(0.06172839506172839,0,0,0.06172839506172839,55.49382716049382,0)" xlink:href="#q"/></g><path d="M137 0h-34L2-248h35l83 218 83-218h36" id="r"/><path d="M24-231v-30h32v30H24zM24 0v-190h32V0H24" id="s"/><path d="M206 0h-36l-40-164L89 0H53L-1-190h32L70-26l43-164h34l41 164 42-164h31" id="t"/><g id="c"><use transform="matrix(0.06172839506172839,0,0,0.06172839506172839,0,0)" xlink:href="#r"/><use transform="matrix(0.06172839506172839,0,0,0.06172839506172839,14.382716049382715,0)" xlink:href="#s"/><use transform="matrix(0.06172839506172839,0,0,0.06172839506172839,19.25925925925926,0)" xlink:href="#p"/><use transform="matrix(0.06172839506172839,0,0,0.06172839506172839,31.604938271604937,0)" xlink:href="#t"/></g><path d="M232-93c-1 65-40 97-104 97C67 4 28-28 28-90v-158h33c8 89-33 224 67 224 102 0 64-133 71-224h33v155" id="u"/><path d="M115-194c55 1 70 41 70 98S169 2 115 4C84 4 66-9 55-30l1 105H24l-1-265h31l2 30c10-21 28-34 59-34zm-8 174c40 0 45-34 45-75s-6-73-45-74c-42 0-51 32-51 76 0 43 10 73 51 73" id="v"/><path d="M141-36C126-15 110 5 73 4 37 3 15-17 15-53c-1-64 63-63 125-63 3-35-9-54-41-54-24 1-41 7-42 31l-33-3c5-37 33-52 76-52 45 0 72 20 72 64v82c-1 20 7 32 28 27v20c-31 9-61-2-59-35zM48-53c0 20 12 33 32 33 41-3 63-29 60-74-43 2-92-5-92 41" id="w"/><path d="M59-47c-2 24 18 29 38 22v24C64 9 27 4 27-40v-127H5v-23h24l9-43h21v43h35v23H59v120" id="x"/><g id="d"><use transform="matrix(0.06172839506172839,0,0,0.06172839506172839,0,0)" xlink:href="#u"/><use transform="matrix(0.06172839506172839,0,0,0.06172839506172839,15.987654320987653,0)" xlink:href="#v"/><use transform="matrix(0.06172839506172839,0,0,0.06172839506172839,28.333333333333332,0)" xlink:href="#o"/><use transform="matrix(0.06172839506172839,0,0,0.06172839506172839,40.67901234567901,0)" xlink:href="#w"/><use transform="matrix(0.06172839506172839,0,0,0.06172839506172839,53.02469135802469,0)" xlink:href="#x"/><use transform="matrix(0.06172839506172839,0,0,0.06172839506172839,59.19753086419753,0)" xlink:href="#p"/></g><path d="M248-111c6-24 9-61-24-58-72 9-57 108-77 169h-31l26-142c3-37-50-30-64-10C52-115 50-51 37 0H6l36-190h30c-1 10-6 24-4 32 13-43 101-52 105 5 13-22 29-41 61-41 90 0 28 129 23 194h-31" id="y"/><path d="M55-144c13 50 104 24 104 88C159 21 15 23 1-39l26-10c6 40 102 42 102-4-13-50-104-23-104-87 0-71 143-71 148-8l-29 4c-5-35-85-37-89 0" id="z"/><path d="M165-48c-4 18 1 34 23 27l-3 20c-29 8-62 0-52-35h-2C116-14 99 4 63 4 30 4 8-16 8-49c0-68 71-67 138-67 10-26 0-56-31-54-26 1-42 9-47 31l-32-5c8-67 160-71 144 15-5 28-9 54-15 81zM42-50c3 52 80 24 89-6 7-12 7-24 11-38-47 1-103-4-100 44" id="A"/><path d="M103-194c29 0 47 14 56 36 2-11 5-23 8-32h30L160-5C157 61 82 97 21 62 9 55 4 45 1 30l28-7c7 42 83 31 92-3 4-16 9-38 13-55-13 20-29 36-62 36-40 0-60-25-60-64 0-71 23-131 91-131zm4 24c-53 0-58 54-61 104-2 27 10 44 36 44 49 0 65-50 67-102 1-29-15-46-42-46" id="B"/><g id="e"><use transform="matrix(0.05555555555555555,0,0,0.05555555555555555,0,0)" xlink:href="#y"/><use transform="matrix(0.05555555555555555,0,0,0.05555555555555555,16.61111111111111,0)" xlink:href="#j"/><use transform="matrix(0.05555555555555555,0,0,0.05555555555555555,27.72222222222222,0)" xlink:href="#z"/><use transform="matrix(0.05555555555555555,0,0,0.05555555555555555,37.72222222222222,0)" xlink:href="#z"/><use transform="matrix(0.05555555555555555,0,0,0.05555555555555555,47.72222222222222,0)" xlink:href="#A"/><use transform="matrix(0.05555555555555555,0,0,0.05555555555555555,58.83333333333333,0)" xlink:href="#B"/><use transform="matrix(0.05555555555555555,0,0,0.05555555555555555,69.94444444444444,0)" xlink:href="#j"/></g><path d="M212-179c-10-28-35-45-73-45-59 0-87 40-87 99 0 60 29 101 89 101 43 0 62-24 78-52l27 14C228-24 195 4 139 4 59 4 22-46 18-125c-6-104 99-153 187-111 19 9 31 26 39 46" id="C"/><path d="M210-169c-67 3-38 105-44 169h-31v-121c0-29-5-50-35-48C34-165 62-65 56 0H25l-1-190h30c1 10-1 24 2 32 10-44 99-50 107 0 11-21 27-35 58-36 85-2 47 119 55 194h-31v-121c0-29-5-49-35-48" id="D"/><path d="M117-194c89-4 53 116 60 194h-32v-121c0-31-8-49-39-48C34-167 62-67 57 0H25l-1-190h30c1 10-1 24 2 32 11-22 29-35 61-36" id="E"/><g id="f"><use transform="matrix(0.06172839506172839,0,0,0.06172839506172839,0,0)" xlink:href="#C"/><use transform="matrix(0.06172839506172839,0,0,0.06172839506172839,15.987654320987653,0)" xlink:href="#n"/><use transform="matrix(0.06172839506172839,0,0,0.06172839506172839,28.333333333333332,0)" xlink:href="#D"/><use transform="matrix(0.06172839506172839,0,0,0.06172839506172839,46.79012345679012,0)" xlink:href="#D"/><use transform="matrix(0.06172839506172839,0,0,0.06172839506172839,65.24691358024691,0)" xlink:href="#w"/><use transform="matrix(0.06172839506172839,0,0,0.06172839506172839,77.5925925925926,0)" xlink:href="#E"/><use transform="matrix(0.06172839506172839,0,0,0.06172839506172839,89.93827160493828,0)" xlink:href="#o"/></g><path d="M30 0v-248h187v28H63v79h144v27H63v87h162V0H30" id="F"/><g id="g"><use transform="matrix(0.06172839506172839,0,0,0.06172839506172839,0,0)" xlink:href="#F"/><use transform="matrix(0.06172839506172839,0,0,0.06172839506172839,14.814814814814813,0)" xlink:href="#q"/><use transform="matrix(0.06172839506172839,0,0,0.06172839506172839,19.691358024691354,0)" xlink:href="#D"/></g><path d="M233-177c-1 41-23 64-60 70L243 0h-38l-65-103H63V0H30v-248c88 3 205-21 203 71zM63-129c60-2 137 13 137-47 0-61-80-42-137-45v92" id="G"/><path d="M84 4C-5 8 30-112 23-190h32v120c0 31 7 50 39 49 72-2 45-101 50-169h31l1 190h-30c-1-10 1-25-2-33-11 22-28 36-60 37" id="H"/><g id="h"><use transform="matrix(0.06172839506172839,0,0,0.06172839506172839,0,0)" xlink:href="#G"/><use transform="matrix(0.06172839506172839,0,0,0.06172839506172839,15.987654320987653,0)" xlink:href="#H"/><use transform="matrix(0.06172839506172839,0,0,0.06172839506172839,28.333333333333332,0)" xlink:href="#E"/><use transform="matrix(0.06172839506172839,0,0,0.06172839506172839,40.67901234567901,0)" xlink:href="#x"/><use transform="matrix(0.06172839506172839,0,0,0.06172839506172839,46.851851851851855,0)" xlink:href="#s"/><use transform="matrix(0.06172839506172839,0,0,0.06172839506172839,51.7283950617284,0)" xlink:href="#D"/><use transform="matrix(0.06172839506172839,0,0,0.06172839506172839,70.18518518518519,0)" xlink:href="#p"/></g></defs></g></svg>