<svg aria-hidden="true" xmlns:xlink="http://www.w3.org/1999/xlink" xmlns="http://www.w3.org/2000/svg" viewBox="-1082.6875 -1971.109375 3674.6015625 3771.109375" height="3771.109375" width="3674.6015625"><defs xmlns="http://www.w3.org/1999/xhtml"><style><![CDATA[/*! Copyright (C) Microsoft Corporation. All rights reserved. */.screenReaderOnlyText{border:0;clip:rect(1px,1px,1px,1px);clip-path:inset(50%);height:1px;margin:-1px;width:1px;overflow:hidden;position:absolute;word-wrap:normal}.anchor{visibility:hidden}.plainText span,.stickyNote span{word-break:keep-all;word-wrap:break-word}foreignObject>div{height:100%;overflow:auto}.plainText foreignObject,.plainText foreignObject>div{overflow:visible}.stickyNote foreignObject,.stickyNote foreignObject>div{overflow:hidden}.textParagraph{margin:0;white-space:pre-wrap}.stickyNote span{font-size:24px;font-family:Segoe UI;font-weight:700}.plainText span{font-size:34px;font-family:Ink Free;font-weight:700}]]></style></defs><g><g transform="matrix(1 0 0 1 754.61328125 -85.5546875)"><defs><pattern patternUnits="userSpaceOnUse" height="48" width="48" y="0" x="0" id="Neutral"><g transform="matrix(1 0 0 1 24 24)"><rect fill="#FFFFFF" stroke="none" height="48" width="48" y="-24" x="-24"/></g></pattern></defs><rect fill="url(#Neutral)" stroke="none" height="3771.109375" width="3674.6015625" y="-1885.5546875" x="-1837.30078125"/></g><g><g transform="matrix(1 0 0 1 457.546875 -489.84375)"><g transform="matrix(0.0078125 0 0 0.0078125 0 0)"><polyline id="1574a03e0b06e946" points="0,0 0,0 0,0 0,0 0,0 0,0 0,0 0,3 0,25 13,335 64,701 137,1147 274,1853 499,2928 814,4385 1211,6204 1672,8332 2174,10709 2697,13278 4610,24311 5777,35441 5905,37947 5983,40273 6014,42403 6004,44351 5961,46135 5894,47750 5814,49190 5729,50446 5644,51514 5565,52401 5445,53514 5337,54509 5316,54780 5305,54999 5296,55191 5286,55360 5286,55375" fill="none" stroke-linejoin="round" stroke-linecap="round" stroke-width="512" stroke="rgba(0,0,0,1)"/></g></g><g transform="matrix(1 0 0 1 462.546875 -479.84375)"><g transform="matrix(0.0078125 0 0 0.0078125 0 0)"><polyline id="1574a03e0b06e969" points="0,0 0,0 0,0 0,0 0,0 0,0 0,0 1,0 7,0 533,1 1164,-11 1882,-35 2877,-76 4189,-133 5860,-205 7916,-289 10308,-379 12972,-470 15850,-565 28418,-1014 40949,-1512 43748,-1626 46306,-1722 48596,-1795 50615,-1846 52364,-1880 53855,-1899 55101,-1907 56115,-1907 57262,-1900 58257,-1867 58429,-1854 58504,-1842 58442,-1818 58044,-1790 57890,-1787 57816,-1787 57740,-1788 57697,-1719 57708,-1517 57742,-1151 57817,-494 57948,553 58140,2038 58393,3984 58702,6349 59059,9079 59467,12136 61367,25299 63503,38525 63927,41014 64301,43218 64628,45145 64910,46798 65153,48180 65357,49304 65595,50573 65827,51670 65901,51952 65915,51921 65862,51638 65799,51346 65698,51293 65621,51295 65549,51298 65010,51316 64337,51362 63590,51407 62547,51462 61157,51519 59368,51576 57158,51629 54623,51671 51712,51699 50237,51705 49495,51706 49402,51706 49309,51706 49123,51706 48751,51705 42737,51641 30768,51119 29320,51009 28040,50902 25158,50677 24459,50650 24109,50643 23934,50642 23846,50642 23759,50643 22337,50707 18192,51434 14172,52512 13092,52807 12085,53084 11184,53332 10402,53550 9359,53841 8404,54095 7476,54242 7021,54260 6908,54261 6795,54259 6570,54253 4780,54139 4814,54110 4839,54042 4846,54014 4853,53987" fill="none" stroke-linejoin="round" stroke-linecap="round" stroke-width="512" stroke="rgba(0,0,0,1)"/></g></g><g transform="matrix(1 0 0 1 965.546875 -276.7421875)"><g transform="matrix(0.0078125 0 0 0.0078125 0 0)"><polyline id="1574a03e0b06e98c" points="0,0 -8,0 -57,0 -286,-4 -295,15 -247,37 -154,69 330,194 921,278 1531,340 2373,399 3501,453 4948,501 6734,542 8844,575 11260,603 13992,631 17031,664 20284,707 23636,766 26984,839 30230,926 33291,1024 36097,1130 38622,1239 40852,1344 42773,1441 44375,1527 45672,1602 47119,1689 48370,1784 48651,1815 48629,1829 48549,1831 48447,1830 48247,1826 47951,1816 47674,1808 47508,1804 47343,1800" fill="none" stroke-linejoin="round" stroke-linecap="round" stroke-width="512" stroke="rgba(0,0,0,1)"/></g></g><g transform="matrix(1 0 0 1 1294.546875 -296.7421875)"><g transform="matrix(0.0078125 0 0 0.0078125 0 0)"><polyline id="1574a03e0b06e9af" points="0,0 0,-35 0,-108 0,-314 0,-529 68,-505 174,-469 695,-254 1269,54 2643,1057 3917,2290 6018,5100 6363,5706 6514,6034 6628,6368 6687,6701 6691,6865 6674,7026 6635,7183 6570,7336 6479,7482 6359,7622 5536,8284 4609,8863 2736,9956 877,10979 601,11128 433,11216 361,11256" fill="none" stroke-linejoin="round" stroke-linecap="round" stroke-width="512" stroke="rgba(0,0,0,1)"/></g></g><g transform="matrix(1 0 0 1 1573.546875 -507.7421875)"><g transform="matrix(0.0078125 0 0 0.0078125 0 0)"><polyline id="1574a03e0b06e9f5" points="0,0 -1,-1 -11,-7 -63,-48 -111,-98 -196,-221 -265,-366 -319,-527 -385,-861 -400,-1157 -408,-1178 -455,-1116 -684,-767 -903,-348 -2303,2598 -3701,5685 -4264,6899 -4881,8211 -8974,17010 -13144,25812 -15369,30425 -17451,35089 -18955,38841 -20454,42619 -22366,46856 -24270,51056 -25000,52835 -25810,54561 -25881,54664 -25962,54751 -26043,54833 -26114,54923 -26129,55015 -26062,55072 -25952,55099 -25839,55101 -24838,54972 -23812,54832 -19302,54559 -14759,54511 -9583,54489 -4438,54360 3772,53749 11959,52956 16359,52648 20720,52420 24123,52254 27529,52207 27646,52216 27695,52218 27684,52188 27622,52097 27382,51635 27166,51034 26971,50437 26737,49681 26465,48783 26156,47758 25814,46625 25448,45398 25059,44089 24641,42691 22832,36703 21036,30654 19024,24072 16638,17675 13880,11574 10877,5634 8347,1120 5440,-3133 4881,-3927 4384,-4757 3782,-5745 3424,-6206 3228,-6409 3018,-6585 2907,-6660 2814,-6690 2723,-6661 2672,-6622 2616,-6564 1453,-5226 369,-3812 -365,-2720 -1098,-1631 -1301,-1357 -1414,-1236 -1540,-1134 -1552,-1127 -1555,-1132 -1553,-1134 -1550,-1138 -1551,-1137" fill="none" stroke-linejoin="round" stroke-linecap="round" stroke-width="512" stroke="rgba(0,0,0,1)"/></g></g><g transform="matrix(1 0 0 1 124 -574.0078125)"><g transform="matrix(0.0078125 0 0 0.0078125 0 0)"><polyline id="1574a03e0b06ea81" points="0,0 -1,-1 -11,-11 -1241,-1056 -2548,-2023 -3358,-2588 -4242,-3037 -6978,-3889 -9780,-4511 -14273,-5315 -18817,-5741 -19544,-5766 -19907,-5772 -20088,-5773 -20179,-5773 -20270,-5773 -21717,-5738 -24593,-5472 -30231,-4206 -33872,-2749 -37261,-776 -40363,1625 -43144,4369 -47759,10520 -49524,13936 -50798,17582 -51639,22235 -51800,26920 -51396,30628 -50367,34244 -49150,37116 -47738,39959 -45203,44063 -42036,47733 -36068,52585 -29424,56359 -26401,57729 -23392,59040 -20425,60224 -17383,61044 -13494,61420 -9579,61349 -5202,60851 -916,60002 3572,58730 5685,57763 7610,56457 9571,54563 11329,52520 13925,48811 14893,46769 15532,44601 15898,40577 15820,36527 15702,32697 15357,28894 13960,22557 11478,16594 8969,12138 6579,7645 5368,5047 4016,2504 2817,689 1433,-960 842,-1608 267,-2253 130,-2395 57,-2456 -21,-2502 -26,-2465 26,-2394 82,-2347 149,-2299 222,-2251 297,-2205" fill="none" stroke-linejoin="round" stroke-linecap="round" stroke-width="512" stroke="rgba(0,0,0,1)"/></g></g><g transform="matrix(1 0 0 1 1125.3125 -1169.109375)"><g transform="matrix(0.0078125 0 0 0.0078125 0 0)"><polyline id="1574a03e0b06eaa4" points="0,0 0,0 0,0 0,0 0,0 0,0 0,0 -1,0 -11,0 -35,0 -76,0 -65,0" fill="none" stroke-linejoin="round" stroke-linecap="round" stroke-width="512" stroke="rgba(0,0,0,1)"/></g></g><g transform="matrix(1 0 0 1 277.3125 -283.109375)"><g transform="matrix(0.0078125 0 0 0.0078125 0 0)"><polyline id="1574a03e0b06eac7" points="0,0 0,-208 0,-388 4,-387 29,-386 305,-404 627,-453 5447,-783 10306,-778 12971,-785 15603,-933 18558,-1329 21509,-1777 22297,-1803 23067,-1791 23069,-1790 23068,-1780 23067,-1756 23063,-1715 23064,-1726" fill="none" stroke-linejoin="round" stroke-linecap="round" stroke-width="512" stroke="rgba(231,18,36,1)"/></g></g><g transform="matrix(1 0 0 1 444.3125 -329.109375)"><g transform="matrix(0.0078125 0 0 0.0078125 0 0)"><polyline id="1574a03e0b06eaea" points="0,0 -1,-1 -11,-11 -367,-296 -553,-439 -721,-600 -865,-770 -1000,-931 -1074,-1020 -1147,-1105 -1148,-1107" fill="none" stroke-linejoin="round" stroke-linecap="round" stroke-width="512" stroke="rgba(231,18,36,1)"/></g></g><g transform="matrix(1 0 0 1 427.3125 -340.109375)"><g transform="matrix(0.0078125 0 0 0.0078125 0 0)"><polyline id="1574a03e0b06eb0d" points="0,0 0,0 0,0 0,0 0,0 0,0 0,0 -65,0 -155,0 -178,14 -108,43 -32,98 391,624 785,1206 2034,3265 3286,5298 3864,6079 4409,6847 4557,7114 4699,7372 4806,7530 4855,7620 4879,7701 4842,7682 4767,7689 4055,7830 3348,8058 1962,8621 573,9192 -770,9858 -1117,10074 -1272,10198 -1340,10266 -1401,10341 -1404,10418 -1308,10414 -1266,10409 -1223,10402" fill="none" stroke-linejoin="round" stroke-linecap="round" stroke-width="512" stroke="rgba(231,18,36,1)"/></g></g></g></g><g><g transform="matrix(1, 0, 0, 1, 0, 0)"><rect height="1" width="1" y="0" x="0" class="anchor"/></g><g transform="matrix(1, 0, 0, 1, 360, 0)"><rect height="1" width="1" y="0" x="0" class="anchor"/></g></g></svg>